<svg id="my-svg" width="100%" xmlns="http://www.w3.org/2000/svg" xmlns:xlink="http://www.w3.org/1999/xlink" class="flowchart" style="max-width: 2387.19px; background-color: white;" viewBox="0 0 2387.1875 759" role="graphics-document document" aria-roledescription="flowchart-v2"><style>#my-svg{font-family:"trebuchet ms",verdana,arial,sans-serif;font-size:16px;fill:#333;}@keyframes edge-animation-frame{from{stroke-dashoffset:0;}}@keyframes dash{to{stroke-dashoffset:0;}}#my-svg .edge-animation-slow{stroke-dasharray:9,5!important;stroke-dashoffset:900;animation:dash 50s linear infinite;stroke-linecap:round;}#my-svg .edge-animation-fast{stroke-dasharray:9,5!important;stroke-dashoffset:900;animation:dash 20s linear infinite;stroke-linecap:round;}#my-svg .error-icon{fill:#552222;}#my-svg .error-text{fill:#552222;stroke:#552222;}#my-svg .edge-thickness-normal{stroke-width:1px;}#my-svg .edge-thickness-thick{stroke-width:3.5px;}#my-svg .edge-pattern-solid{stroke-dasharray:0;}#my-svg .edge-thickness-invisible{stroke-width:0;fill:none;}#my-svg .edge-pattern-dashed{stroke-dasharray:3;}#my-svg .edge-pattern-dotted{stroke-dasharray:2;}#my-svg .marker{fill:#333333;stroke:#333333;}#my-svg .marker.cross{stroke:#333333;}#my-svg svg{font-family:"trebuchet ms",verdana,arial,sans-serif;font-size:16px;}#my-svg p{margin:0;}#my-svg .label{font-family:"trebuchet ms",verdana,arial,sans-serif;color:#333;}#my-svg .cluster-label text{fill:#333;}#my-svg .cluster-label span{color:#333;}#my-svg .cluster-label span p{background-color:transparent;}#my-svg .label text,#my-svg span{fill:#333;color:#333;}#my-svg .node rect,#my-svg .node circle,#my-svg .node ellipse,#my-svg .node polygon,#my-svg .node path{fill:#ECECFF;stroke:#9370DB;stroke-width:1px;}#my-svg .rough-node .label text,#my-svg .node .label text,#my-svg .image-shape .label,#my-svg .icon-shape .label{text-anchor:middle;}#my-svg .node .katex path{fill:#000;stroke:#000;stroke-width:1px;}#my-svg .rough-node .label,#my-svg .node .label,#my-svg .image-shape .label,#my-svg .icon-shape .label{text-align:center;}#my-svg .node.clickable{cursor:pointer;}#my-svg .root .anchor path{fill:#333333!important;stroke-width:0;stroke:#333333;}#my-svg .arrowheadPath{fill:#333333;}#my-svg .edgePath .path{stroke:#333333;stroke-width:1px;}#my-svg .flowchart-link{stroke:#333333;fill:none;}#my-svg .edgeLabel{background-color:rgba(232,232,232, 0.8);text-align:center;}#my-svg .edgeLabel p{background-color:rgba(232,232,232, 0.8);}#my-svg .edgeLabel rect{opacity:0.5;background-color:rgba(232,232,232, 0.8);fill:rgba(232,232,232, 0.8);}#my-svg .labelBkg{background-color:rgba(232, 232, 232, 0.5);}#my-svg .cluster rect{fill:#ffffde;stroke:#aaaa33;stroke-width:1px;}#my-svg .cluster text{fill:#333;}#my-svg .cluster span{color:#333;}#my-svg div.mermaidTooltip{position:absolute;text-align:center;max-width:200px;padding:2px;font-family:"trebuchet ms",verdana,arial,sans-serif;font-size:12px;background:hsl(80, 100%, 96.2745098039%);border:1px solid #aaaa33;border-radius:2px;pointer-events:none;z-index:100;}#my-svg .flowchartTitleText{text-anchor:middle;font-size:18px;fill:#333;}#my-svg rect.text{fill:none;stroke-width:0;}#my-svg .icon-shape,#my-svg .image-shape{background-color:rgba(232,232,232, 0.8);text-align:center;}#my-svg .icon-shape p,#my-svg .image-shape p{background-color:rgba(232,232,232, 0.8);padding:2px;}#my-svg .icon-shape .label rect,#my-svg .image-shape .label rect{opacity:0.5;background-color:rgba(232,232,232, 0.8);fill:rgba(232,232,232, 0.8);}#my-svg .label-icon{display:inline-block;height:1em;overflow:visible;vertical-align:-0.125em;}#my-svg .node .label-icon path{fill:currentColor;stroke:revert;stroke-width:revert;}#my-svg .node .neo-node{stroke:#9370DB;}#my-svg [data-look="neo"].node rect,#my-svg [data-look="neo"].cluster rect,#my-svg [data-look="neo"].node polygon{stroke:#9370DB;filter:drop-shadow(1px 2px 2px rgba(185, 185, 185, 1));}#my-svg [data-look="neo"].node path{stroke:#9370DB;stroke-width:1px;}#my-svg [data-look="neo"].node .outer-path{filter:drop-shadow(1px 2px 2px rgba(185, 185, 185, 1));}#my-svg [data-look="neo"].node .neo-line path{stroke:#9370DB;filter:none;}#my-svg [data-look="neo"].node circle{stroke:#9370DB;filter:drop-shadow(1px 2px 2px rgba(185, 185, 185, 1));}#my-svg [data-look="neo"].node circle .state-start{fill:#000000;}#my-svg [data-look="neo"].icon-shape .icon{fill:#9370DB;filter:drop-shadow(1px 2px 2px rgba(185, 185, 185, 1));}#my-svg [data-look="neo"].icon-shape .icon-neo path{stroke:#9370DB;filter:drop-shadow(1px 2px 2px rgba(185, 185, 185, 1));}#my-svg :root{--mermaid-font-family:"trebuchet ms",verdana,arial,sans-serif;}</style><g><marker id="my-svg_flowchart-v2-pointEnd" class="marker flowchart-v2" viewBox="0 0 10 10" refX="5" refY="5" markerUnits="userSpaceOnUse" markerWidth="8" markerHeight="8" orient="auto"><path d="M 0 0 L 10 5 L 0 10 z" class="arrowMarkerPath" style="stroke-width: 1; stroke-dasharray: 1, 0;"/></marker><marker id="my-svg_flowchart-v2-pointStart" class="marker flowchart-v2" viewBox="0 0 10 10" refX="4.5" refY="5" markerUnits="userSpaceOnUse" markerWidth="8" markerHeight="8" orient="auto"><path d="M 0 5 L 10 10 L 10 0 z" class="arrowMarkerPath" style="stroke-width: 1; stroke-dasharray: 1, 0;"/></marker><marker id="my-svg_flowchart-v2-pointEnd-margin" class="marker flowchart-v2" viewBox="0 0 11.5 14" refX="11.5" refY="7" markerUnits="userSpaceOnUse" markerWidth="10.5" markerHeight="14" orient="auto"><path d="M 0 0 L 11.5 7 L 0 14 z" class="arrowMarkerPath" style="stroke-width: 0; stroke-dasharray: 1, 0;"/></marker><marker id="my-svg_flowchart-v2-pointStart-margin" class="marker flowchart-v2" viewBox="0 0 11.5 14" refX="1" refY="7" markerUnits="userSpaceOnUse" markerWidth="11.5" markerHeight="14" orient="auto"><polygon points="0,7 11.5,14 11.5,0" class="arrowMarkerPath" style="stroke-width: 0; stroke-dasharray: 1, 0;"/></marker><marker id="my-svg_flowchart-v2-circleEnd" class="marker flowchart-v2" viewBox="0 0 10 10" refX="11" refY="5" markerUnits="userSpaceOnUse" markerWidth="11" markerHeight="11" orient="auto"><circle cx="5" cy="5" r="5" class="arrowMarkerPath" style="stroke-width: 1; stroke-dasharray: 1, 0;"/></marker><marker id="my-svg_flowchart-v2-circleStart" class="marker flowchart-v2" viewBox="0 0 10 10" refX="-1" refY="5" markerUnits="userSpaceOnUse" markerWidth="11" markerHeight="11" orient="auto"><circle cx="5" cy="5" r="5" class="arrowMarkerPath" style="stroke-width: 1; stroke-dasharray: 1, 0;"/></marker><marker id="my-svg_flowchart-v2-circleEnd-margin" class="marker flowchart-v2" viewBox="0 0 10 10" refY="5" refX="12.25" markerUnits="userSpaceOnUse" markerWidth="14" markerHeight="14" orient="auto"><circle cx="5" cy="5" r="5" class="arrowMarkerPath" style="stroke-width: 0; stroke-dasharray: 1, 0;"/></marker><marker id="my-svg_flowchart-v2-circleStart-margin" class="marker flowchart-v2" viewBox="0 0 10 10" refX="-2" refY="5" markerUnits="userSpaceOnUse" markerWidth="14" markerHeight="14" orient="auto"><circle cx="5" cy="5" r="5" class="arrowMarkerPath" style="stroke-width: 0; stroke-dasharray: 1, 0;"/></marker><marker id="my-svg_flowchart-v2-crossEnd" class="marker cross flowchart-v2" viewBox="0 0 11 11" refX="12" refY="5.2" markerUnits="userSpaceOnUse" markerWidth="11" markerHeight="11" orient="auto"><path d="M 1,1 l 9,9 M 10,1 l -9,9" class="arrowMarkerPath" style="stroke-width: 2; stroke-dasharray: 1, 0;"/></marker><marker id="my-svg_flowchart-v2-crossStart" class="marker cross flowchart-v2" viewBox="0 0 11 11" refX="-1" refY="5.2" markerUnits="userSpaceOnUse" markerWidth="11" markerHeight="11" orient="auto"><path d="M 1,1 l 9,9 M 10,1 l -9,9" class="arrowMarkerPath" style="stroke-width: 2; stroke-dasharray: 1, 0;"/></marker><marker id="my-svg_flowchart-v2-crossEnd-margin" class="marker cross flowchart-v2" viewBox="0 0 15 15" refX="17.7" refY="7.5" markerUnits="userSpaceOnUse" markerWidth="12" markerHeight="12" orient="auto"><path d="M 1,1 L 14,14 M 1,14 L 14,1" class="arrowMarkerPath" style="stroke-width: 2.5;"/></marker><marker id="my-svg_flowchart-v2-crossStart-margin" class="marker cross flowchart-v2" viewBox="0 0 15 15" refX="-3.5" refY="7.5" markerUnits="userSpaceOnUse" markerWidth="12" markerHeight="12" orient="auto"><path d="M 1,1 L 14,14 M 1,14 L 14,1" class="arrowMarkerPath" style="stroke-width: 2.5; stroke-dasharray: 1, 0;"/></marker><g class="root"><g class="clusters"><g class="cluster" id="my-svg-Infra" data-look="classic"><rect style="" x="1186.234375" y="315" width="1192.953125" height="436"/><g class="cluster-label" transform="translate(1766.703125, 315)"><foreignObject width="32.015625" height="24"><div xmlns="http://www.w3.org/1999/xhtml" style="display: table-cell; white-space: nowrap; line-height: 1.5;"><span class="nodeLabel"><p>Infra</p></span></div></foreignObject></g></g><g class="cluster" id="my-svg-Scheduler" data-look="classic"><rect style="" x="1696.90625" y="8" width="459.234375" height="124"/><g class="cluster-label" transform="translate(1890.5, 8)"><foreignObject width="72.046875" height="24"><div xmlns="http://www.w3.org/1999/xhtml" style="display: table-cell; white-space: nowrap; line-height: 1.5;"><span class="nodeLabel"><p>Scheduler</p></span></div></foreignObject></g></g><g class="cluster" id="my-svg-Worker" data-look="classic"><rect style="" x="1393.265625" y="152" width="762.875" height="143"/><g class="cluster-label" transform="translate(1749.0703125, 152)"><foreignObject width="51.265625" height="24"><div xmlns="http://www.w3.org/1999/xhtml" style="display: table-cell; white-space: nowrap; line-height: 1.5;"><span class="nodeLabel"><p>Worker</p></span></div></foreignObject></g></g><g class="cluster" id="my-svg-API" data-look="classic"><rect style="" x="306.421875" y="336" width="829.8125" height="402"/><g class="cluster-label" transform="translate(708.4296875, 336)"><foreignObject width="25.796875" height="24"><div xmlns="http://www.w3.org/1999/xhtml" style="display: table-cell; white-space: nowrap; line-height: 1.5;"><span class="nodeLabel"><p>API</p></span></div></foreignObject></g></g><g class="cluster" id="my-svg-Cliente" data-look="classic"><rect style="" x="8" y="439" width="248.421875" height="124"/><g class="cluster-label" transform="translate(107.3046875, 439)"><foreignObject width="49.8125" height="24"><div xmlns="http://www.w3.org/1999/xhtml" style="display: table-cell; white-space: nowrap; line-height: 1.5;"><span class="nodeLabel"><p>Cliente</p></span></div></foreignObject></g></g></g><g class="edgePaths"><path d="M231.422,501L235.589,501C239.755,501,248.089,501,256.422,501C264.755,501,273.089,501,281.422,501C289.755,501,298.089,501,305.755,501C313.422,501,320.422,501,323.922,501L327.422,501" id="my-svg-L_C1_A1_0" class="edge-thickness-normal edge-pattern-solid edge-thickness-normal edge-pattern-solid flowchart-link" style=";" data-edge="true" data-et="edge" data-id="L_C1_A1_0" data-points="W3sieCI6MjMxLjQyMTg3NSwieSI6NTAxfSx7IngiOjI1Ni40MjE4NzUsInkiOjUwMX0seyJ4IjoyODEuNDIxODc1LCJ5Ijo1MDF9LHsieCI6MzA2LjQyMTg3NSwieSI6NTAxfSx7IngiOjMzMS40MjE4NzUsInkiOjUwMX1d" data-look="classic" marker-end="url(#my-svg_flowchart-v2-pointEnd)"/><path d="M519.453,501L523.62,501C527.786,501,536.12,501,543.786,501C551.453,501,558.453,501,561.953,501L565.453,501" id="my-svg-L_A1_A2_0" class="edge-thickness-normal edge-pattern-solid edge-thickness-normal edge-pattern-solid flowchart-link" style=";" data-edge="true" data-et="edge" data-id="L_A1_A2_0" data-points="W3sieCI6NTE5LjQ1MzEyNSwieSI6NTAxfSx7IngiOjU0NC40NTMxMjUsInkiOjUwMX0seyJ4Ijo1NjkuNDUzMTI1LCJ5Ijo1MDF9XQ==" data-look="classic" marker-end="url(#my-svg_flowchart-v2-pointEnd)"/><path d="M685.484,501L689.651,501C693.818,501,702.151,501,709.818,501C717.484,501,724.484,501,727.984,501L731.484,501" id="my-svg-L_A2_A3_0" class="edge-thickness-normal edge-pattern-solid edge-thickness-normal edge-pattern-solid flowchart-link" style=";" data-edge="true" data-et="edge" data-id="L_A2_A3_0" data-points="W3sieCI6Njg1LjQ4NDM3NSwieSI6NTAxfSx7IngiOjcxMC40ODQzNzUsInkiOjUwMX0seyJ4Ijo3MzUuNDg0Mzc1LCJ5Ijo1MDF9XQ==" data-look="classic" marker-end="url(#my-svg_flowchart-v2-pointEnd)"/><path d="M939.875,501L944.042,501C948.208,501,956.542,501,964.208,501C971.875,501,978.875,501,982.375,501L985.875,501" id="my-svg-L_A3_A4_0" class="edge-thickness-normal edge-pattern-solid edge-thickness-normal edge-pattern-solid flowchart-link" style=";" data-edge="true" data-et="edge" data-id="L_A3_A4_0" data-points="W3sieCI6OTM5Ljg3NSwieSI6NTAxfSx7IngiOjk2NC44NzUsInkiOjUwMX0seyJ4Ijo5ODkuODc1LCJ5Ijo1MDF9XQ==" data-look="classic" marker-end="url(#my-svg_flowchart-v2-pointEnd)"/><path d="M1095.915,474L1102.634,470C1109.354,466,1122.794,458,1133.681,454C1144.568,450,1152.901,450,1161.234,450C1169.568,450,1177.901,450,1197.237,450C1216.573,450,1246.911,450,1277.25,450C1307.589,450,1337.927,450,1357.263,450C1376.599,450,1384.932,450,1412.319,450C1439.706,450,1486.146,450,1532.586,450C1579.026,450,1625.466,450,1652.853,450C1680.24,450,1688.573,450,1712.578,450C1736.583,450,1776.26,450,1815.938,450C1855.615,450,1895.292,450,1933.561,450C1971.831,450,2008.693,450,2045.555,450C2082.417,450,2119.279,450,2141.876,450C2164.474,450,2172.807,450,2186.837,442.729C2200.867,435.458,2220.593,420.916,2230.456,413.645L2240.319,406.374" id="my-svg-L_A4_I1_0" class="edge-thickness-normal edge-pattern-solid edge-thickness-normal edge-pattern-solid flowchart-link" style=";" data-edge="true" data-et="edge" data-id="L_A4_I1_0" data-points="W3sieCI6MTA5NS45MTQ1MjIwNTg4MjM0LCJ5Ijo0NzR9LHsieCI6MTEzNi4yMzQzNzUsInkiOjQ1MH0seyJ4IjoxMTYxLjIzNDM3NSwieSI6NDUwfSx7IngiOjExODYuMjM0Mzc1LCJ5Ijo0NTB9LHsieCI6MTI3Ny4yNSwieSI6NDUwfSx7IngiOjEzNjguMjY1NjI1LCJ5Ijo0NTB9LHsieCI6MTM5My4yNjU2MjUsInkiOjQ1MH0seyJ4IjoxNTMyLjU4NTkzNzUsInkiOjQ1MH0seyJ4IjoxNjcxLjkwNjI1LCJ5Ijo0NTB9LHsieCI6MTY5Ni45MDYyNSwieSI6NDUwfSx7IngiOjE4MTUuOTM3NSwieSI6NDUwfSx7IngiOjE5MzQuOTY4NzUsInkiOjQ1MH0seyJ4IjoyMDQ1LjU1NDY4NzUsInkiOjQ1MH0seyJ4IjoyMTU2LjE0MDYyNSwieSI6NDUwfSx7IngiOjIxODEuMTQwNjI1LCJ5Ijo0NTB9LHsieCI6MjI0My41Mzg5NTU0Nzk0NTIsInkiOjQwNH1d" data-look="classic" marker-end="url(#my-svg_flowchart-v2-pointEnd)"/><path d="M1111.234,508.082L1115.401,508.568C1119.568,509.055,1127.901,510.027,1136.234,510.514C1144.568,511,1152.901,511,1161.234,511C1169.568,511,1177.901,511,1197.237,511C1216.573,511,1246.911,511,1277.25,511C1307.589,511,1337.927,511,1357.263,511C1376.599,511,1384.932,511,1412.319,511C1439.706,511,1486.146,511,1532.586,511C1579.026,511,1625.466,511,1652.853,511C1680.24,511,1688.573,511,1712.578,511C1736.583,511,1776.26,511,1815.938,511C1855.615,511,1895.292,511,1933.561,511C1971.831,511,2008.693,511,2045.555,511C2082.417,511,2119.279,511,2141.876,511C2164.474,511,2172.807,511,2184.431,508.741C2196.055,506.482,2210.969,501.963,2218.426,499.704L2225.883,497.445" id="my-svg-L_A4_I2_0" class="edge-thickness-normal edge-pattern-solid edge-thickness-normal edge-pattern-solid flowchart-link" style=";" data-edge="true" data-et="edge" data-id="L_A4_I2_0" data-points="W3sieCI6MTExMS4yMzQzNzUsInkiOjUwOC4wODIxNTU1NTc1ODE4fSx7IngiOjExMzYuMjM0Mzc1LCJ5Ijo1MTF9LHsieCI6MTE2MS4yMzQzNzUsInkiOjUxMX0seyJ4IjoxMTg2LjIzNDM3NSwieSI6NTExfSx7IngiOjEyNzcuMjUsInkiOjUxMX0seyJ4IjoxMzY4LjI2NTYyNSwieSI6NTExfSx7IngiOjEzOTMuMjY1NjI1LCJ5Ijo1MTF9LHsieCI6MTUzMi41ODU5Mzc1LCJ5Ijo1MTF9LHsieCI6MTY3MS45MDYyNSwieSI6NTExfSx7IngiOjE2OTYuOTA2MjUsInkiOjUxMX0seyJ4IjoxODE1LjkzNzUsInkiOjUxMX0seyJ4IjoxOTM0Ljk2ODc1LCJ5Ijo1MTF9LHsieCI6MjA0NS41NTQ2ODc1LCJ5Ijo1MTF9LHsieCI6MjE1Ni4xNDA2MjUsInkiOjUxMX0seyJ4IjoyMTgxLjE0MDYyNSwieSI6NTExfSx7IngiOjIyMjkuNzEwOTM3NSwieSI6NDk2LjI4NTIwNzEwMDU5MTd9XQ==" data-look="classic" marker-end="url(#my-svg_flowchart-v2-pointEnd)"/><path d="M1070.847,474L1081.745,459.5C1092.643,445,1114.439,416,1129.503,401.5C1144.568,387,1152.901,387,1161.234,387C1169.568,387,1177.901,387,1185.568,387C1193.234,387,1200.234,387,1203.734,387L1207.234,387" id="my-svg-L_A4_I3_0" class="edge-thickness-normal edge-pattern-solid edge-thickness-normal edge-pattern-solid flowchart-link" style=";" data-edge="true" data-et="edge" data-id="L_A4_I3_0" data-points="W3sieCI6MTA3MC44NDcyNDUwNjU3ODk0LCJ5Ijo0NzR9LHsieCI6MTEzNi4yMzQzNzUsInkiOjM4N30seyJ4IjoxMTYxLjIzNDM3NSwieSI6Mzg3fSx7IngiOjExODYuMjM0Mzc1LCJ5IjozODd9LHsieCI6MTIxMS4yMzQzNzUsInkiOjM4N31d" data-look="classic" marker-end="url(#my-svg_flowchart-v2-pointEnd)"/><path d="M1068.915,528L1080.135,544.5C1091.355,561,1113.794,594,1129.181,610.5C1144.568,627,1152.901,627,1161.234,627C1169.568,627,1177.901,627,1197.237,627C1216.573,627,1246.911,627,1277.25,627C1307.589,627,1337.927,627,1357.263,627C1376.599,627,1384.932,627,1412.319,627C1439.706,627,1486.146,627,1532.586,627C1579.026,627,1625.466,627,1652.853,627C1680.24,627,1688.573,627,1712.578,627C1736.583,627,1776.26,627,1815.938,627C1855.615,627,1895.292,627,1933.561,627C1971.831,627,2008.693,627,2045.555,627C2082.417,627,2119.279,627,2141.876,627C2164.474,627,2172.807,627,2182.254,624.76C2191.702,622.521,2202.263,618.041,2207.543,615.802L2212.824,613.562" id="my-svg-L_A4_I4_0" class="edge-thickness-normal edge-pattern-solid edge-thickness-normal edge-pattern-solid flowchart-link" style=";" data-edge="true" data-et="edge" data-id="L_A4_I4_0" data-points="W3sieCI6MTA2OC45MTQ2MjA1MzU3MTQyLCJ5Ijo1Mjh9LHsieCI6MTEzNi4yMzQzNzUsInkiOjYyN30seyJ4IjoxMTYxLjIzNDM3NSwieSI6NjI3fSx7IngiOjExODYuMjM0Mzc1LCJ5Ijo2Mjd9LHsieCI6MTI3Ny4yNSwieSI6NjI3fSx7IngiOjEzNjguMjY1NjI1LCJ5Ijo2Mjd9LHsieCI6MTM5My4yNjU2MjUsInkiOjYyN30seyJ4IjoxNTMyLjU4NTkzNzUsInkiOjYyN30seyJ4IjoxNjcxLjkwNjI1LCJ5Ijo2Mjd9LHsieCI6MTY5Ni45MDYyNSwieSI6NjI3fSx7IngiOjE4MTUuOTM3NSwieSI6NjI3fSx7IngiOjE5MzQuOTY4NzUsInkiOjYyN30seyJ4IjoyMDQ1LjU1NDY4NzUsInkiOjYyN30seyJ4IjoyMTU2LjE0MDYyNSwieSI6NjI3fSx7IngiOjIxODEuMTQwNjI1LCJ5Ijo2Mjd9LHsieCI6MjIxNi41MDYxMzgzOTI4NTczLCJ5Ijo2MTJ9XQ==" data-look="classic" marker-end="url(#my-svg_flowchart-v2-pointEnd)"/><path d="M1062.238,528L1074.571,556.5C1086.904,585,1111.569,642,1128.068,670.5C1144.568,699,1152.901,699,1161.234,699C1169.568,699,1177.901,699,1197.237,699C1216.573,699,1246.911,699,1277.25,699C1307.589,699,1337.927,699,1357.263,699C1376.599,699,1384.932,699,1412.319,699C1439.706,699,1486.146,699,1532.586,699C1579.026,699,1625.466,699,1652.853,699C1680.24,699,1688.573,699,1712.578,699C1736.583,699,1776.26,699,1815.938,699C1855.615,699,1895.292,699,1933.561,699C1971.831,699,2008.693,699,2045.555,699C2082.417,699,2119.279,699,2141.876,699C2164.474,699,2172.807,699,2184.923,698.197C2197.038,697.395,2212.935,695.789,2220.884,694.986L2228.833,694.184" id="my-svg-L_A4_I5_0" class="edge-thickness-normal edge-pattern-solid edge-thickness-normal edge-pattern-solid flowchart-link" style=";" data-edge="true" data-et="edge" data-id="L_A4_I5_0" data-points="W3sieCI6MTA2Mi4yMzgyODEyNSwieSI6NTI4fSx7IngiOjExMzYuMjM0Mzc1LCJ5Ijo2OTl9LHsieCI6MTE2MS4yMzQzNzUsInkiOjY5OX0seyJ4IjoxMTg2LjIzNDM3NSwieSI6Njk5fSx7IngiOjEyNzcuMjUsInkiOjY5OX0seyJ4IjoxMzY4LjI2NTYyNSwieSI6Njk5fSx7IngiOjEzOTMuMjY1NjI1LCJ5Ijo2OTl9LHsieCI6MTUzMi41ODU5Mzc1LCJ5Ijo2OTl9LHsieCI6MTY3MS45MDYyNSwieSI6Njk5fSx7IngiOjE2OTYuOTA2MjUsInkiOjY5OX0seyJ4IjoxODE1LjkzNzUsInkiOjY5OX0seyJ4IjoxOTM0Ljk2ODc1LCJ5Ijo2OTl9LHsieCI6MjA0NS41NTQ2ODc1LCJ5Ijo2OTl9LHsieCI6MjE1Ni4xNDA2MjUsInkiOjY5OX0seyJ4IjoyMTgxLjE0MDYyNSwieSI6Njk5fSx7IngiOjIyMzIuODEyNSwieSI6NjkzLjc4MTg1NDA0MzM5MjV9XQ==" data-look="classic" marker-end="url(#my-svg_flowchart-v2-pointEnd)"/><path d="M1343.266,387L1347.432,387C1351.599,387,1359.932,387,1368.266,387C1376.599,387,1384.932,387,1407.801,366.328C1430.669,345.655,1468.073,304.311,1486.774,283.639L1505.476,262.966" id="my-svg-L_I3_W1_0" class="edge-thickness-normal edge-pattern-solid edge-thickness-normal edge-pattern-solid flowchart-link" style=";" data-edge="true" data-et="edge" data-id="L_I3_W1_0" data-points="W3sieCI6MTM0My4yNjU2MjUsInkiOjM4N30seyJ4IjoxMzY4LjI2NTYyNSwieSI6Mzg3fSx7IngiOjEzOTMuMjY1NjI1LCJ5IjozODd9LHsieCI6MTUwOC4xNTk2NDg5NDQ4MDUyLCJ5IjoyNjB9XQ==" data-look="classic" marker-end="url(#my-svg_flowchart-v2-pointEnd)"/><path d="M1646.906,233L1651.073,233C1655.24,233,1663.573,233,1671.906,233C1680.24,233,1688.573,233,1701.503,233C1714.432,233,1731.958,233,1740.721,233L1749.484,233" id="my-svg-L_W1_W2_0" class="edge-thickness-normal edge-pattern-solid edge-thickness-normal edge-pattern-solid flowchart-link" style=";" data-edge="true" data-et="edge" data-id="L_W1_W2_0" data-points="W3sieCI6MTY0Ni45MDYyNSwieSI6MjMzfSx7IngiOjE2NzEuOTA2MjUsInkiOjIzM30seyJ4IjoxNjk2LjkwNjI1LCJ5IjoyMzN9LHsieCI6MTc1My40ODQzNzUsInkiOjIzM31d" data-look="classic" marker-end="url(#my-svg_flowchart-v2-pointEnd)"/><path d="M1878.391,233L1887.82,233C1897.25,233,1916.109,233,1929.039,233C1941.969,233,1948.969,233,1952.469,233L1955.969,233" id="my-svg-L_W2_W3_0" class="edge-thickness-normal edge-pattern-solid edge-thickness-normal edge-pattern-solid flowchart-link" style=";" data-edge="true" data-et="edge" data-id="L_W2_W3_0" data-points="W3sieCI6MTg3OC4zOTA2MjUsInkiOjIzM30seyJ4IjoxOTM0Ljk2ODc1LCJ5IjoyMzN9LHsieCI6MTk1OS45Njg3NSwieSI6MjMzfV0=" data-look="classic" marker-end="url(#my-svg_flowchart-v2-pointEnd)"/><path d="M2120.2,206L2126.19,203.833C2132.18,201.667,2144.16,197.333,2154.317,227.333C2164.474,257.333,2172.807,321.667,2180.551,353.508C2188.295,385.35,2195.448,384.7,2199.025,384.374L2202.602,384.049" id="my-svg-L_W3_I1_0" class="edge-thickness-normal edge-pattern-solid edge-thickness-normal edge-pattern-solid flowchart-link" style=";" data-edge="true" data-et="edge" data-id="L_W3_I1_0" data-points="W3sieCI6MjEyMC4yMDAxOTUzMTI1LCJ5IjoyMDZ9LHsieCI6MjE1Ni4xNDA2MjUsInkiOjE5M30seyJ4IjoyMTgxLjE0MDYyNSwieSI6Mzg2fSx7IngiOjIyMDYuNTg1OTM3NSwieSI6MzgzLjY4NzMzNzI3ODEwNjV9XQ==" data-look="classic" marker-end="url(#my-svg_flowchart-v2-pointEnd)"/><path d="M2131.141,217.521L2135.307,216.768C2139.474,216.014,2147.807,214.507,2156.141,259.92C2164.474,305.333,2172.807,397.667,2184.405,443.158C2196.003,488.649,2210.865,487.298,2218.296,486.623L2225.727,485.948" id="my-svg-L_W3_I2_0" class="edge-thickness-normal edge-pattern-solid edge-thickness-normal edge-pattern-solid flowchart-link" style=";" data-edge="true" data-et="edge" data-id="L_W3_I2_0" data-points="W3sieCI6MjEzMS4xNDA2MjUsInkiOjIxNy41MjEzNzA1NDA0NDUwOH0seyJ4IjoyMTU2LjE0MDYyNSwieSI6MjEzfSx7IngiOjIxODEuMTQwNjI1LCJ5Ijo0OTB9LHsieCI6MjIyOS43MTA5Mzc1LCJ5Ijo0ODUuNTg1NTYyMTMwMTc3NX1d" data-look="classic" marker-end="url(#my-svg_flowchart-v2-pointEnd)"/><path d="M2131.141,233.774L2135.307,233.812C2139.474,233.849,2147.807,233.925,2156.141,287.129C2164.474,340.333,2172.807,446.667,2180.506,500.975C2188.205,555.283,2195.27,557.566,2198.802,558.707L2202.334,559.849" id="my-svg-L_W3_I4_0" class="edge-thickness-normal edge-pattern-solid edge-thickness-normal edge-pattern-solid flowchart-link" style=";" data-edge="true" data-et="edge" data-id="L_W3_I4_0" data-points="W3sieCI6MjEzMS4xNDA2MjUsInkiOjIzMy43NzM5MzE0NzI5Nzc3NX0seyJ4IjoyMTU2LjE0MDYyNSwieSI6MjM0fSx7IngiOjIxODEuMTQwNjI1LCJ5Ijo1NTN9LHsieCI6MjIwNi4xNDA2MjUsInkiOjU2MS4wNzg4OTU0NjM1MTA5fV0=" data-look="classic" marker-end="url(#my-svg_flowchart-v2-pointEnd)"/><path d="M2131.141,249.253L2135.307,250.044C2139.474,250.835,2147.807,252.418,2156.141,318.709C2164.474,385,2172.807,516,2184.972,584.892C2197.137,653.785,2213.134,660.57,2221.132,663.962L2229.13,667.354" id="my-svg-L_W3_I5_0" class="edge-thickness-normal edge-pattern-solid edge-thickness-normal edge-pattern-solid flowchart-link" style=";" data-edge="true" data-et="edge" data-id="L_W3_I5_0" data-points="W3sieCI6MjEzMS4xNDA2MjUsInkiOjI0OS4yNTI1NjA5MzI1MzI2N30seyJ4IjoyMTU2LjE0MDYyNSwieSI6MjU0fSx7IngiOjIxODEuMTQwNjI1LCJ5Ijo2NDd9LHsieCI6MjIzMi44MTI1LCJ5Ijo2NjguOTE2MjEzMDE3NzUxNX1d" data-look="classic" marker-end="url(#my-svg_flowchart-v2-pointEnd)"/><path d="M1909.969,70L1914.135,70C1918.302,70,1926.635,70,1934.525,70C1942.414,70,1949.859,70,1953.582,70L1957.305,70" id="my-svg-L_S1_S2_0" class="edge-thickness-normal edge-pattern-solid edge-thickness-normal edge-pattern-solid flowchart-link" style=";" data-edge="true" data-et="edge" data-id="L_S1_S2_0" data-points="W3sieCI6MTkwOS45Njg3NSwieSI6NzB9LHsieCI6MTkzNC45Njg3NSwieSI6NzB9LHsieCI6MTk2MS4zMDQ2ODc1LCJ5Ijo3MH1d" data-look="classic" marker-end="url(#my-svg_flowchart-v2-pointEnd)"/><path d="M2129.805,61.62L2134.194,61.183C2138.583,60.746,2147.362,59.873,2155.918,108.77C2164.474,157.667,2172.807,256.333,2180.564,306.464C2188.321,356.595,2195.501,358.19,2199.091,358.988L2202.681,359.786" id="my-svg-L_S2_I1_0" class="edge-thickness-normal edge-pattern-solid edge-thickness-normal edge-pattern-solid flowchart-link" style=";" data-edge="true" data-et="edge" data-id="L_S2_I1_0" data-points="W3sieCI6MjEyOS44MDQ2ODc1LCJ5Ijo2MS42MTk2Mzk3MDMyODUwNn0seyJ4IjoyMTU2LjE0MDYyNSwieSI6NTl9LHsieCI6MjE4MS4xNDA2MjUsInkiOjM1NX0seyJ4IjoyMjA2LjU4NTkzNzUsInkiOjM2MC42NTMxNzU1NDI0MDYzfV0=" data-look="classic" marker-end="url(#my-svg_flowchart-v2-pointEnd)"/><path d="M2129.805,85.999L2134.194,86.832C2138.583,87.666,2147.362,89.333,2155.918,153.333C2164.474,217.333,2172.807,343.667,2184.406,407.659C2196.006,471.651,2210.87,473.303,2218.303,474.128L2225.735,474.954" id="my-svg-L_S2_I2_0" class="edge-thickness-normal edge-pattern-solid edge-thickness-normal edge-pattern-solid flowchart-link" style=";" data-edge="true" data-et="edge" data-id="L_S2_I2_0" data-points="W3sieCI6MjEyOS44MDQ2ODc1LCJ5Ijo4NS45OTg4Njk2NTczNjQ4OX0seyJ4IjoyMTU2LjE0MDYyNSwieSI6OTF9LHsieCI6MjE4MS4xNDA2MjUsInkiOjQ3MH0seyJ4IjoyMjI5LjcxMDkzNzUsInkiOjQ3NS4zOTU0MjQwNjMxMTYzN31d" data-look="classic" marker-end="url(#my-svg_flowchart-v2-pointEnd)"/></g><g class="edgeLabels"><g class="edgeLabel"><g class="label" data-id="L_C1_A1_0" transform="translate(0, 0)"><foreignObject width="0" height="0"><div xmlns="http://www.w3.org/1999/xhtml" class="labelBkg" style="display: table-cell; white-space: nowrap; line-height: 1.5; max-width: 200px; text-align: center;"><span class="edgeLabel"></span></div></foreignObject></g></g><g class="edgeLabel"><g class="label" data-id="L_A1_A2_0" transform="translate(0, 0)"><foreignObject width="0" height="0"><div xmlns="http://www.w3.org/1999/xhtml" class="labelBkg" style="display: table-cell; white-space: nowrap; line-height: 1.5; max-width: 200px; text-align: center;"><span class="edgeLabel"></span></div></foreignObject></g></g><g class="edgeLabel"><g class="label" data-id="L_A2_A3_0" transform="translate(0, 0)"><foreignObject width="0" height="0"><div xmlns="http://www.w3.org/1999/xhtml" class="labelBkg" style="display: table-cell; white-space: nowrap; line-height: 1.5; max-width: 200px; text-align: center;"><span class="edgeLabel"></span></div></foreignObject></g></g><g class="edgeLabel"><g class="label" data-id="L_A3_A4_0" transform="translate(0, 0)"><foreignObject width="0" height="0"><div xmlns="http://www.w3.org/1999/xhtml" class="labelBkg" style="display: table-cell; white-space: nowrap; line-height: 1.5; max-width: 200px; text-align: center;"><span class="edgeLabel"></span></div></foreignObject></g></g><g class="edgeLabel"><g class="label" data-id="L_A4_I1_0" transform="translate(0, 0)"><foreignObject width="0" height="0"><div xmlns="http://www.w3.org/1999/xhtml" class="labelBkg" style="display: table-cell; white-space: nowrap; line-height: 1.5; max-width: 200px; text-align: center;"><span class="edgeLabel"></span></div></foreignObject></g></g><g class="edgeLabel"><g class="label" data-id="L_A4_I2_0" transform="translate(0, 0)"><foreignObject width="0" height="0"><div xmlns="http://www.w3.org/1999/xhtml" class="labelBkg" style="display: table-cell; white-space: nowrap; line-height: 1.5; max-width: 200px; text-align: center;"><span class="edgeLabel"></span></div></foreignObject></g></g><g class="edgeLabel"><g class="label" data-id="L_A4_I3_0" transform="translate(0, 0)"><foreignObject width="0" height="0"><div xmlns="http://www.w3.org/1999/xhtml" class="labelBkg" style="display: table-cell; white-space: nowrap; line-height: 1.5; max-width: 200px; text-align: center;"><span class="edgeLabel"></span></div></foreignObject></g></g><g class="edgeLabel"><g class="label" data-id="L_A4_I4_0" transform="translate(0, 0)"><foreignObject width="0" height="0"><div xmlns="http://www.w3.org/1999/xhtml" class="labelBkg" style="display: table-cell; white-space: nowrap; line-height: 1.5; max-width: 200px; text-align: center;"><span class="edgeLabel"></span></div></foreignObject></g></g><g class="edgeLabel"><g class="label" data-id="L_A4_I5_0" transform="translate(0, 0)"><foreignObject width="0" height="0"><div xmlns="http://www.w3.org/1999/xhtml" class="labelBkg" style="display: table-cell; white-space: nowrap; line-height: 1.5; max-width: 200px; text-align: center;"><span class="edgeLabel"></span></div></foreignObject></g></g><g class="edgeLabel"><g class="label" data-id="L_I3_W1_0" transform="translate(0, 0)"><foreignObject width="0" height="0"><div xmlns="http://www.w3.org/1999/xhtml" class="labelBkg" style="display: table-cell; white-space: nowrap; line-height: 1.5; max-width: 200px; text-align: center;"><span class="edgeLabel"></span></div></foreignObject></g></g><g class="edgeLabel"><g class="label" data-id="L_W1_W2_0" transform="translate(0, 0)"><foreignObject width="0" height="0"><div xmlns="http://www.w3.org/1999/xhtml" class="labelBkg" style="display: table-cell; white-space: nowrap; line-height: 1.5; max-width: 200px; text-align: center;"><span class="edgeLabel"></span></div></foreignObject></g></g><g class="edgeLabel"><g class="label" data-id="L_W2_W3_0" transform="translate(0, 0)"><foreignObject width="0" height="0"><div xmlns="http://www.w3.org/1999/xhtml" class="labelBkg" style="display: table-cell; white-space: nowrap; line-height: 1.5; max-width: 200px; text-align: center;"><span class="edgeLabel"></span></div></foreignObject></g></g><g class="edgeLabel"><g class="label" data-id="L_W3_I1_0" transform="translate(0, 0)"><foreignObject width="0" height="0"><div xmlns="http://www.w3.org/1999/xhtml" class="labelBkg" style="display: table-cell; white-space: nowrap; line-height: 1.5; max-width: 200px; text-align: center;"><span class="edgeLabel"></span></div></foreignObject></g></g><g class="edgeLabel"><g class="label" data-id="L_W3_I2_0" transform="translate(0, 0)"><foreignObject width="0" height="0"><div xmlns="http://www.w3.org/1999/xhtml" class="labelBkg" style="display: table-cell; white-space: nowrap; line-height: 1.5; max-width: 200px; text-align: center;"><span class="edgeLabel"></span></div></foreignObject></g></g><g class="edgeLabel"><g class="label" data-id="L_W3_I4_0" transform="translate(0, 0)"><foreignObject width="0" height="0"><div xmlns="http://www.w3.org/1999/xhtml" class="labelBkg" style="display: table-cell; white-space: nowrap; line-height: 1.5; max-width: 200px; text-align: center;"><span class="edgeLabel"></span></div></foreignObject></g></g><g class="edgeLabel"><g class="label" data-id="L_W3_I5_0" transform="translate(0, 0)"><foreignObject width="0" height="0"><div xmlns="http://www.w3.org/1999/xhtml" class="labelBkg" style="display: table-cell; white-space: nowrap; line-height: 1.5; max-width: 200px; text-align: center;"><span class="edgeLabel"></span></div></foreignObject></g></g><g class="edgeLabel"><g class="label" data-id="L_S1_S2_0" transform="translate(0, 0)"><foreignObject width="0" height="0"><div xmlns="http://www.w3.org/1999/xhtml" class="labelBkg" style="display: table-cell; white-space: nowrap; line-height: 1.5; max-width: 200px; text-align: center;"><span class="edgeLabel"></span></div></foreignObject></g></g><g class="edgeLabel"><g class="label" data-id="L_S2_I1_0" transform="translate(0, 0)"><foreignObject width="0" height="0"><div xmlns="http://www.w3.org/1999/xhtml" class="labelBkg" style="display: table-cell; white-space: nowrap; line-height: 1.5; max-width: 200px; text-align: center;"><span class="edgeLabel"></span></div></foreignObject></g></g><g class="edgeLabel"><g class="label" data-id="L_S2_I2_0" transform="translate(0, 0)"><foreignObject width="0" height="0"><div xmlns="http://www.w3.org/1999/xhtml" class="labelBkg" style="display: table-cell; white-space: nowrap; line-height: 1.5; max-width: 200px; text-align: center;"><span class="edgeLabel"></span></div></foreignObject></g></g></g><g class="nodes"><g class="node default" id="my-svg-flowchart-C1-0" data-look="classic" transform="translate(132.2109375, 501)"><rect class="basic label-container" style="" x="-99.2109375" y="-27" width="198.421875" height="54"/><g class="label" style="" transform="translate(-69.2109375, -12)"><rect/><foreignObject width="138.421875" height="24"><div xmlns="http://www.w3.org/1999/xhtml" style="display: table-cell; white-space: nowrap; line-height: 1.5; max-width: 200px; text-align: center;"><span class="nodeLabel"><p>Cliente HTTP ou UI</p></span></div></foreignObject></g></g><g class="node default" id="my-svg-flowchart-A1-1" data-look="classic" transform="translate(425.4375, 501)"><rect class="basic label-container" style="" x="-94.015625" y="-27" width="188.03125" height="54"/><g class="label" style="" transform="translate(-64.015625, -12)"><rect/><foreignObject width="128.03125" height="24"><div xmlns="http://www.w3.org/1999/xhtml" style="display: table-cell; white-space: nowrap; line-height: 1.5; max-width: 200px; text-align: center;"><span class="nodeLabel"><p>Middleware HTTP</p></span></div></foreignObject></g></g><g class="node default" id="my-svg-flowchart-A2-2" data-look="classic" transform="translate(627.46875, 501)"><rect class="basic label-container" style="" x="-58.015625" y="-27" width="116.03125" height="54"/><g class="label" style="" transform="translate(-28.015625, -12)"><rect/><foreignObject width="56.03125" height="24"><div xmlns="http://www.w3.org/1999/xhtml" style="display: table-cell; white-space: nowrap; line-height: 1.5; max-width: 200px; text-align: center;"><span class="nodeLabel"><p>Routers</p></span></div></foreignObject></g></g><g class="node default" id="my-svg-flowchart-A3-3" data-look="classic" transform="translate(837.6796875, 501)"><rect class="basic label-container" style="" x="-102.1953125" y="-27" width="204.390625" height="54"/><g class="label" style="" transform="translate(-72.1953125, -12)"><rect/><foreignObject width="144.390625" height="24"><div xmlns="http://www.w3.org/1999/xhtml" style="display: table-cell; white-space: nowrap; line-height: 1.5; max-width: 200px; text-align: center;"><span class="nodeLabel"><p>Resolução de YAML</p></span></div></foreignObject></g></g><g class="node default" id="my-svg-flowchart-A4-4" data-look="classic" transform="translate(1050.5546875, 501)"><rect class="basic label-container" style="" x="-60.6796875" y="-27" width="121.359375" height="54"/><g class="label" style="" transform="translate(-30.6796875, -12)"><rect/><foreignObject width="61.359375" height="24"><div xmlns="http://www.w3.org/1999/xhtml" style="display: table-cell; white-space: nowrap; line-height: 1.5; max-width: 200px; text-align: center;"><span class="nodeLabel"><p>Services</p></span></div></foreignObject></g></g><g class="node default" id="my-svg-flowchart-W1-5" data-look="classic" transform="translate(1532.5859375, 233)"><rect class="basic label-container" style="" x="-114.3203125" y="-27" width="228.640625" height="54"/><g class="label" style="" transform="translate(-84.3203125, -12)"><rect/><foreignObject width="168.640625" height="24"><div xmlns="http://www.w3.org/1999/xhtml" style="display: table-cell; white-space: nowrap; line-height: 1.5; max-width: 200px; text-align: center;"><span class="nodeLabel"><p>WorkerProcessRuntime</p></span></div></foreignObject></g></g><g class="node default" id="my-svg-flowchart-W2-6" data-look="classic" transform="translate(1815.9375, 233)"><rect class="basic label-container" style="" x="-62.453125" y="-27" width="124.90625" height="54"/><g class="label" style="" transform="translate(-32.453125, -12)"><rect/><foreignObject width="64.90625" height="24"><div xmlns="http://www.w3.org/1999/xhtml" style="display: table-cell; white-space: nowrap; line-height: 1.5; max-width: 200px; text-align: center;"><span class="nodeLabel"><p>Dramatiq</p></span></div></foreignObject></g></g><g class="node default" id="my-svg-flowchart-W3-7" data-look="classic" transform="translate(2045.5546875, 233)"><rect class="basic label-container" style="" x="-85.5859375" y="-27" width="171.171875" height="54"/><g class="label" style="" transform="translate(-55.5859375, -12)"><rect/><foreignObject width="111.171875" height="24"><div xmlns="http://www.w3.org/1999/xhtml" style="display: table-cell; white-space: nowrap; line-height: 1.5; max-width: 200px; text-align: center;"><span class="nodeLabel"><p>Orquestradores</p></span></div></foreignObject></g></g><g class="node default" id="my-svg-flowchart-S1-8" data-look="classic" transform="translate(1815.9375, 70)"><rect class="basic label-container" style="" x="-94.03125" y="-27" width="188.0625" height="54"/><g class="label" style="" transform="translate(-64.03125, -12)"><rect/><foreignObject width="128.0625" height="24"><div xmlns="http://www.w3.org/1999/xhtml" style="display: table-cell; white-space: nowrap; line-height: 1.5; max-width: 200px; text-align: center;"><span class="nodeLabel"><p>RuntimeBootstrap</p></span></div></foreignObject></g></g><g class="node default" id="my-svg-flowchart-S2-9" data-look="classic" transform="translate(2045.5546875, 70)"><rect class="basic label-container" style="" x="-84.25" y="-27" width="168.5" height="54"/><g class="label" style="" transform="translate(-54.25, -12)"><rect/><foreignObject width="108.5" height="24"><div xmlns="http://www.w3.org/1999/xhtml" style="display: table-cell; white-space: nowrap; line-height: 1.5; max-width: 200px; text-align: center;"><span class="nodeLabel"><p>Jobs temporais</p></span></div></foreignObject></g></g><g class="node default" id="my-svg-flowchart-I1-10" data-look="classic" transform="translate(2280.1640625, 377)"><rect class="basic label-container" style="" x="-73.578125" y="-27" width="147.15625" height="54"/><g class="label" style="" transform="translate(-43.578125, -12)"><rect/><foreignObject width="87.15625" height="24"><div xmlns="http://www.w3.org/1999/xhtml" style="display: table-cell; white-space: nowrap; line-height: 1.5; max-width: 200px; text-align: center;"><span class="nodeLabel"><p>PostgreSQL</p></span></div></foreignObject></g></g><g class="node default" id="my-svg-flowchart-I2-11" data-look="classic" transform="translate(2280.1640625, 481)"><rect class="basic label-container" style="" x="-50.453125" y="-27" width="100.90625" height="54"/><g class="label" style="" transform="translate(-20.453125, -12)"><rect/><foreignObject width="40.90625" height="24"><div xmlns="http://www.w3.org/1999/xhtml" style="display: table-cell; white-space: nowrap; line-height: 1.5; max-width: 200px; text-align: center;"><span class="nodeLabel"><p>Redis</p></span></div></foreignObject></g></g><g class="node default" id="my-svg-flowchart-I3-12" data-look="classic" transform="translate(1277.25, 387)"><rect class="basic label-container" style="" x="-66.015625" y="-27" width="132.03125" height="54"/><g class="label" style="" transform="translate(-36.015625, -12)"><rect/><foreignObject width="72.03125" height="24"><div xmlns="http://www.w3.org/1999/xhtml" style="display: table-cell; white-space: nowrap; line-height: 1.5; max-width: 200px; text-align: center;"><span class="nodeLabel"><p>RabbitMQ</p></span></div></foreignObject></g></g><g class="node default" id="my-svg-flowchart-I4-13" data-look="classic" transform="translate(2280.1640625, 585)"><rect class="basic label-container" style="" x="-74.0234375" y="-27" width="148.046875" height="54"/><g class="label" style="" transform="translate(-44.0234375, -12)"><rect/><foreignObject width="88.046875" height="24"><div xmlns="http://www.w3.org/1999/xhtml" style="display: table-cell; white-space: nowrap; line-height: 1.5; max-width: 200px; text-align: center;"><span class="nodeLabel"><p>Vector Store</p></span></div></foreignObject></g></g><g class="node default" id="my-svg-flowchart-I5-14" data-look="classic" transform="translate(2280.1640625, 689)"><rect class="basic label-container" style="" x="-47.3515625" y="-27" width="94.703125" height="54"/><g class="label" style="" transform="translate(-17.3515625, -12)"><rect/><foreignObject width="34.703125" height="24"><div xmlns="http://www.w3.org/1999/xhtml" style="display: table-cell; white-space: nowrap; line-height: 1.5; max-width: 200px; text-align: center;"><span class="nodeLabel"><p>Logs</p></span></div></foreignObject></g></g></g></g></g><defs><filter id="my-svg-drop-shadow" height="130%" width="130%"><feDropShadow dx="4" dy="4" stdDeviation="0" flood-opacity="0.06" flood-color="#000000"/></filter></defs><defs><filter id="my-svg-drop-shadow-small" height="150%" width="150%"><feDropShadow dx="2" dy="2" stdDeviation="0" flood-opacity="0.06" flood-color="#000000"/></filter></defs></svg>